<?xml version="1.0" encoding="utf-8"?>
<!-- Generator: Adobe Illustrator 16.0.3, SVG Export Plug-In . SVG Version: 6.00 Build 0)  -->
<!DOCTYPE svg PUBLIC "-//W3C//DTD SVG 1.1//EN" "http://www.w3.org/Graphics/SVG/1.1/DTD/svg11.dtd">
<svg version="1.1" id="Layer_1" xmlns="http://www.w3.org/2000/svg" xmlns:xlink="http://www.w3.org/1999/xlink" x="0px" y="0px"
	 width="900px" height="900px" viewBox="0 0 900 900" enable-background="new 0 0 900 900" xml:space="preserve">
<path d="M950,843.943C950,910.248,896.248,964,829.943,964H70.057C3.751,964-50,910.248-50,843.943V84.057
	C-50,17.751,3.751-36,70.057-36h759.887C896.248-36,950,17.751,950,84.057V843.943z"/>
<g>
	<g>
		<path fill="#FFFFFF" stroke="#FFFFFF" d="M567.336,360.663l-13.998-13.998c0,0,0.559-1.347,2.059-3.985l-34.943-34.943
			c0,0-3.515-3.514,0.598-7.627l12.816-12.816l53.449,2.907l18.139-18.138l-56.471-56.47l-4.235,4.235l-3.14-3.139l42.441-42.44
			c0,0,1.088-1.089,1.569-0.608c0,0,1.097,2.058-1.442,4.597l-6.406,6.406l-1.217,3.379c0,0-7.256,7.255-7.255,7.255l96.005,6.541
			c0,0,6.893-7.87,24.063-15.847c0,0,24.543-12.692,48.118-33.128c0,0,7.623-7.863,9.681-5.805c0,0,32.399-30.716,57.551-39.18
			l9.268-8.383l0.53,0.53l-8.372,9.278c-8.463,25.152-39.181,57.551-39.181,57.551c2.059,2.058-5.805,9.681-5.805,9.681
			c-20.436,23.576-33.129,48.119-33.129,48.119c-7.976,17.169-15.846,24.063-15.846,24.063l6.541,96.004
			c-0.001,0,7.255-7.256,7.255-7.256l3.38-1.217l6.406-6.406c2.538-2.538,4.596-1.441,4.596-1.441
			c0.48,0.48-0.607,1.569-0.607,1.569l-42.44,42.44l-3.14-3.14l4.235-4.235l-56.469-56.469l-18.139,18.138l2.908,53.449
			l-12.816,12.815c-4.113,4.113-7.629,0.599-7.629,0.599l-34.943-34.943C568.683,360.104,567.336,360.663,567.336,360.663
			l-13.998-13.998"/>
		<line fill="none" stroke="#FFFFFF" x1="814.255" y1="99.746" x2="820.579" y2="93.421"/>
	</g>
	<g>
		<path fill-rule="evenodd" clip-rule="evenodd" fill="#FFFFFF" d="M-58.37,1000.538c-9.63-9.966-18.796-19.452-28.792-29.797
			c162.9-176.876,326.449-354.462,492.237-534.474c0,18.542,0,33.748,0,47.148c42.108-38.709,146.064-125.742,146.064-125.742
			l4.688,4.688c0,0-113.185,134.069-163.729,199.84c0-19.338,0-34.912,0-60.301C238.434,671.997,90.116,836.173-58.37,1000.538z"/>
	</g>
</g>
<g>
	<g>
		<path fill="#FFFFFF" stroke="#FFFFFF" d="M258.757,360.663l-13.998-13.998c0,0,0.559-1.347,2.059-3.985l-34.943-34.943
			c0,0-3.515-3.514,0.598-7.627l12.816-12.816l53.449,2.907l18.139-18.138l-56.471-56.47l-4.235,4.235l-3.14-3.139l42.441-42.44
			c0,0,1.088-1.089,1.569-0.608c0,0,1.097,2.058-1.442,4.597l-6.406,6.406l-1.217,3.379c0,0-7.256,7.255-7.255,7.255l96.005,6.541
			c0,0,6.893-7.87,24.063-15.847c0,0,24.543-12.692,48.118-33.128c0,0,7.623-7.863,9.681-5.805c0,0,32.399-30.716,57.551-39.18
			l9.268-8.383l0.53,0.53l-8.372,9.278c-8.463,25.152-39.181,57.551-39.181,57.551c2.059,2.058-5.805,9.681-5.805,9.681
			c-20.436,23.576-33.129,48.119-33.129,48.119c-7.976,17.169-15.846,24.063-15.846,24.063l6.541,96.004
			c-0.001,0,7.255-7.256,7.255-7.256l3.38-1.217l6.406-6.406c2.538-2.538,4.596-1.441,4.596-1.441
			c0.48,0.48-0.607,1.569-0.607,1.569l-42.44,42.441l-3.14-3.141l4.235-4.235l-56.469-56.469l-18.139,18.138l2.908,53.449
			l-12.816,12.816c-4.113,4.113-7.629,0.598-7.629,0.598l-34.943-34.943C260.104,360.104,258.757,360.663,258.757,360.663
			l-13.998-13.998"/>
		<line fill="none" stroke="#FFFFFF" x1="505.676" y1="99.746" x2="512" y2="93.421"/>
	</g>
	<g>
		<path fill-rule="evenodd" clip-rule="evenodd" fill="#FFFFFF" d="M-366.949,1000.538c-9.63-9.966-18.796-19.452-28.792-29.797
			c162.9-176.876,326.449-354.462,492.236-534.474c0,18.543,0,33.748,0,47.148c42.109-38.709,146.064-125.742,146.064-125.742
			l4.688,4.688c0,0-113.185,134.069-163.729,199.84c0-19.338,0-34.912,0-60.301C-70.146,671.997-218.464,836.173-366.949,1000.538z"
			/>
	</g>
</g>
<g>
	<g>
		<path fill="#FFFFFF" stroke="#FFFFFF" d="M567.336,669.24l-13.998-13.998c0,0,0.559-1.346,2.059-3.984l-34.943-34.943
			c0,0-3.515-3.514,0.598-7.627l12.816-12.816l53.449,2.906l18.139-18.137l-56.471-56.471l-4.235,4.235l-3.14-3.14l42.441-42.439
			c0,0,1.088-1.09,1.569-0.609c0,0,1.097,2.059-1.442,4.598l-6.406,6.406l-1.217,3.379c0,0-7.256,7.256-7.255,7.256l96.005,6.541
			c0,0,6.893-7.871,24.063-15.848c0,0,24.543-12.691,48.118-33.128c0,0,7.623-7.863,9.681-5.805c0,0,32.399-30.716,57.551-39.18
			l9.268-8.383l0.53,0.53l-8.372,9.278c-8.463,25.152-39.181,57.551-39.181,57.551c2.059,2.059-5.805,9.681-5.805,9.681
			c-20.436,23.575-33.129,48.118-33.129,48.118c-7.976,17.17-15.846,24.064-15.846,24.064l6.541,96.004
			c-0.001,0,7.255-7.256,7.255-7.256l3.38-1.217l6.406-6.406c2.538-2.539,4.596-1.441,4.596-1.441
			c0.48,0.48-0.607,1.568-0.607,1.568l-42.44,42.441l-3.14-3.141l4.235-4.234l-56.469-56.469l-18.139,18.137l2.908,53.449
			l-12.816,12.816c-4.113,4.113-7.629,0.598-7.629,0.598l-34.943-34.943C568.683,668.682,567.336,669.24,567.336,669.24
			l-13.998-13.998"/>
		<line fill="none" stroke="#FFFFFF" x1="814.255" y1="408.324" x2="820.579" y2="402"/>
	</g>
	<g>
		<path fill-rule="evenodd" clip-rule="evenodd" fill="#FFFFFF" d="M-58.37,1309.116c-9.63-9.966-18.796-19.452-28.792-29.797
			c162.9-176.876,326.449-354.462,492.236-534.474c0,18.543,0,33.748,0,47.148c42.109-38.709,146.064-125.742,146.064-125.742
			l4.688,4.688c0,0-113.185,134.069-163.729,199.84c0-19.338,0-34.912,0-60.301C238.434,980.575,90.115,1144.751-58.37,1309.116z"/>
	</g>
</g>
</svg>
